<svg xmlns="http://www.w3.org/2000/svg" viewBox="0 0 160 160" role="img" aria-label="SVGV School Crest">
  <defs>
    <linearGradient id="crestBlue" x1="0" y1="0" x2="1" y2="1">
      <stop offset="0%" stop-color="#0f3d5e"/>
      <stop offset="100%" stop-color="#2f80ed"/>
    </linearGradient>
    <linearGradient id="crestLight" x1="0" y1="0" x2="1" y2="0">
      <stop offset="0%" stop-color="#f1f7f2"/>
      <stop offset="100%" stop-color="#e6f1ea"/>
    </linearGradient>
  </defs>
  <rect x="16" y="16" width="128" height="128" rx="28" fill="url(#crestBlue)"/>
  <path d="M80 28c-18 0-36 6-52 18v38c0 28 20 52 52 60 32-8 52-32 52-60V46c-16-12-34-18-52-18z" fill="url(#crestLight)"/>
  <path d="M80 38c-14 0-28 4-40 12v32c0 22 16 42 40 48 24-6 40-26 40-48V50c-12-8-26-12-40-12z" fill="#ffffff"/>
  <circle cx="80" cy="66" r="18" fill="#0f3d5e"/>
  <path d="M70 67l7 7 13-16" fill="none" stroke="#ffffff" stroke-width="4" stroke-linecap="round" stroke-linejoin="round"/>
  <rect x="44" y="108" width="72" height="20" rx="10" fill="#0f3d5e"/>
  <text x="80" y="122" text-anchor="middle" font-family="Arial, sans-serif" font-size="12" font-weight="700" fill="#ffffff">SVGV</text>
</svg>
